HIERARCHY
ROOT pelvis
{
  OFFSET 0 100 0
  CHANNELS 6 Xposition Yposition Zposition Zrotation Xrotation Yrotation
  JOINT pelvis_right_femur
  {
    OFFSET -10.78128 -3.44521 -0.5502486
    CHANNELS 3 Zrotation Xrotation Yrotation
    JOINT right_femur_tibia
    {
      OFFSET -0.8047443 -44.0398 -0.1307829
      CHANNELS 3 Zrotation Xrotation Yrotation
      JOINT right_tibia_foot
      {
        OFFSET 3.006224 -47.83518 -5
        CHANNELS 3 Zrotation Xrotation Yrotation
        End Site
        {
          OFFSET 0 -5 15
        }
      }
    }
  }
  JOINT pelvis_left_femur
  {
    OFFSET 10.78128 -3.44521 -0.5502486
    CHANNELS 3 Zrotation Xrotation Yrotation
    JOINT left_femur_tibia
    {
      OFFSET 0.8047443 -44.0398 -0.1307829
      CHANNELS 3 Zrotation Xrotation Yrotation
      JOINT left_tibia_foot
      {
        OFFSET -4.370144 -48.10324 -4.275266
        CHANNELS 3 Zrotation Xrotation Yrotation
        End Site
        {
          OFFSET 0 -5 15
        }
      }
    }
  }
  JOINT pelvis_spine1
  {
    OFFSET 0 6.468898 -3.129235
    CHANNELS 3 Zrotation Xrotation Yrotation
    JOINT spine1
    {
      OFFSET 0 23.15396 4.99043
      CHANNELS 3 Zrotation Xrotation Yrotation
      JOINT spine2
      {
        OFFSET 0 20.79997 -5.064912
        CHANNELS 3 Zrotation Xrotation Yrotation
        JOINT neck
        {
          OFFSET 0 14.38658 9.616178
          CHANNELS 3 Zrotation Xrotation Yrotation
          End Site
          {
            OFFSET 0 20 0
          }
        }
      }
      JOINT right_manubrium
      {
        OFFSET -5.722621 16.35077 3.967754
        CHANNELS 3 Zrotation Xrotation Yrotation
        JOINT right_clavicle
        {
          OFFSET -13.16364 1.694482 -4.693211
          CHANNELS 3 Zrotation Xrotation Yrotation
          JOINT right_humerus
          {
            OFFSET -28.5034 -0.3100689 -2.792744
            CHANNELS 3 Zrotation Xrotation Yrotation
            JOINT right_radius
            {
              OFFSET -25.15693 0.02248979 -1.271978
              CHANNELS 3 Zrotation Xrotation Yrotation
              End Site
              {
                OFFSET -15 0 0
              }
            }
          }
        }
      }
      JOINT left_manubrium
      {
        OFFSET 5.722621 16.35077 3.967754
        CHANNELS 3 Zrotation Xrotation Yrotation
        JOINT left_clavicle
        {
          OFFSET 13.16364 1.694482 -4.693211
          CHANNELS 3 Zrotation Xrotation Yrotation
          JOINT left_humerus
          {
            OFFSET 29.39168 -1.063119 -2.237045
            CHANNELS 3 Zrotation Xrotation Yrotation
            JOINT left_radius
            {
              OFFSET 24.59957 -0.9528479 0.9047498
              CHANNELS 3 Zrotation Xrotation Yrotation
              End Site
              {
                OFFSET 15 -0 -0
              }
            }
          }
        }
      }
    }
  }
}
MOTION
Frames: 15
Frame Time: 0.0416666666667
-1317.908 78.79215 2843.988 -11.53572 -4.96515 -67.77307 3.733824 -0.1551109 -11.18668 -0 17.20014 -0 -24.27247 16.64355 7.130398 -1.810304 0.743672 -3.543495 -0 20.79273 -0 8.619224 -7.452281 16.14179 0.2817611 -2.516639 3.45831 -0.4611318 17.28642 -5.722524 1.033257 23.5295 3.488271 2.79218 -20.9131 3.820101 -9.173584 -26.38898 11.12925 100.2408 10.18188 -14.25255 -0 0 10.20302 -26.65256 3.307182 12.36476 4.251771 -28.55172 -12.11947 -86.99759 -0.6264046 19.43185 0 0 -12.61545 24.76599 12.58731 -19.87609
-1324.179 78.84169 2847.166 -11.54955 -4.932557 -67.93327 3.733816 -0.1551628 -11.1867 -0 17.20016 -0 -24.27249 16.64359 7.130408 -1.810316 0.743733 -3.543502 -0 20.79272 -0 8.619233 -7.452296 16.14178 0.28176 -2.516642 3.4583 -0.4611301 17.28643 -5.72253 1.033256 23.5295 3.488272 2.792182 -20.9131 3.820101 -9.173589 -26.38898 11.12925 100.2408 10.18187 -14.25257 -0 0 10.203 -26.65256 3.307175 12.36475 4.251772 -28.55174 -12.11947 -86.99758 -0.6264195 19.43182 0 0 -12.61547 24.76601 12.58731 -19.87612
-1330.459 78.89123 2850.327 -11.56328 -4.899925 -68.09345 3.733809 -0.1552253 -11.18671 -0 17.20017 -0 -24.27251 16.64363 7.130415 -1.810327 0.7438004 -3.543507 -0 20.79273 -0 8.619241 -7.452311 16.14178 0.2817604 -2.516644 3.45829 -0.4611269 17.28643 -5.722537 1.033256 23.5295 3.488273 2.792183 -20.9131 3.820101 -9.173594 -26.38897 11.12925 100.2409 10.18185 -14.25259 -0 0 10.20297 -26.65255 3.30717 12.36474 4.251773 -28.55175 -12.11948 -86.99757 -0.6264348 19.43179 0 0 -12.61549 24.76603 12.58731 -19.87615
-1336.748 78.94076 2853.47 -11.57691 -4.867253 -68.25361 3.733804 -0.1552939 -11.18672 -0 17.20016 -0 -24.27253 16.64366 7.130421 -1.810336 0.7438694 -3.54351 -0 20.79275 -0 8.619247 -7.452323 16.14177 0.2817619 -2.516646 3.458281 -0.4611226 17.28644 -5.722546 1.033256 23.5295 3.488274 2.792184 -20.9131 3.820101 -9.173598 -26.38896 11.12925 100.2409 10.18184 -14.25262 -0 0 10.20293 -26.65255 3.307166 12.36473 4.251775 -28.55177 -12.11949 -86.99755 -0.6264495 19.43176 0 0 -12.61552 24.76606 12.5873 -19.87618
-1343.046 78.99031 2856.595 -11.59045 -4.834541 -68.41376 3.733802 -0.1553639 -11.18673 -0 17.20013 -0 -24.27254 16.64369 7.130425 -1.810344 0.7439357 -3.543511 -0 20.79279 -0 8.619251 -7.452334 16.14175 0.2817646 -2.516648 3.458272 -0.4611176 17.28644 -5.722555 1.033255 23.5295 3.488275 2.792185 -20.91311 3.820101 -9.173601 -26.38895 11.12925 100.2409 10.18184 -14.25264 -0 0 10.2029 -26.65254 3.307164 12.36472 4.251776 -28.55179 -12.1195 -86.99754 -0.6264628 19.43173 0 0 -12.61556 24.76608 12.5873 -19.8762
-1349.353 79.03985 2859.702 -11.6039 -4.801792 -68.57389 3.733802 -0.1554309 -11.18674 -0 17.20009 -0 -24.27256 16.64371 7.130426 -1.81035 0.7439952 -3.543511 -0 20.79284 -0 8.619252 -7.452342 16.14174 0.2817681 -2.516649 3.458264 -0.4611122 17.28644 -5.722565 1.033255 23.5295 3.488275 2.792185 -20.91311 3.8201 -9.173603 -26.38894 11.12925 100.2409 10.18183 -14.25267 -0 0 10.20287 -26.65253 3.307164 12.36471 4.251778 -28.55181 -12.11951 -86.99753 -0.6264739 19.4317 0 0 -12.61559 24.7661 12.58729 -19.87623
-1355.669 79.08939 2862.791 -11.61726 -4.769003 -68.73401 3.733805 -0.1554908 -11.18674 -0 17.20004 -0 -24.27257 16.64372 7.130424 -1.810353 0.7440447 -3.543508 -0 20.7929 -0 8.61925 -7.452347 16.14173 0.2817722 -2.51665 3.458258 -0.4611067 17.28645 -5.722573 1.033254 23.5295 3.488275 2.792186 -20.91312 3.820099 -9.173605 -26.38893 11.12926 100.2409 10.18183 -14.2527 -0 0 10.20284 -26.65252 3.307166 12.3647 4.25178 -28.55182 -12.11951 -86.99752 -0.6264822 19.43167 0 0 -12.61563 24.76611 12.58729 -19.87625
-1361.993 79.13894 2865.862 -11.63052 -4.736178 -68.89412 3.733809 -0.1555402 -11.18674 -0 17.19998 -0 -24.27257 16.64372 7.130421 -1.810354 0.7440817 -3.543504 -0 20.79296 -0 8.619247 -7.452349 16.14172 0.2817766 -2.51665 3.458254 -0.4611015 17.28645 -5.722581 1.033254 23.5295 3.488274 2.792186 -20.91312 3.820098 -9.173605 -26.38892 11.12926 100.2409 10.18182 -14.25272 -0 0 10.20282 -26.65251 3.307169 12.36469 4.251781 -28.55184 -12.11952 -86.99751 -0.6264875 19.43165 0 0 -12.61566 24.76612 12.58729 -19.87626
-1368.326 79.18848 2868.915 -11.64369 -4.703315 -69.05421 3.733815 -0.1555769 -11.18674 -0 17.19993 -0 -24.27257 16.64371 7.130416 -1.810352 0.7441046 -3.543499 -0 20.79301 -0 8.619242 -7.452347 16.14171 0.281781 -2.51665 3.458252 -0.4610969 17.28645 -5.722587 1.033253 23.5295 3.488273 2.792186 -20.91312 3.820097 -9.173604 -26.38891 11.12926 100.2409 10.18183 -14.25274 -0 0 10.2028 -26.6525 3.307173 12.36468 4.251782 -28.55185 -12.11952 -86.9975 -0.6264895 19.43164 0 0 -12.61569 24.76613 12.58729 -19.87627
-1374.668 79.23802 2871.95 -11.65677 -4.670415 -69.21428 3.733822 -0.1555991 -11.18674 -0 17.19987 -0 -24.27257 16.6437 7.130409 -1.810348 0.7441129 -3.543493 -0 20.79306 -0 8.619235 -7.452343 16.1417 0.281785 -2.516649 3.458253 -0.4610932 17.28645 -5.722591 1.033253 23.52949 3.488273 2.792185 -20.91312 3.820096 -9.173602 -26.38891 11.12926 100.241 10.18183 -14.25275 -0 0 10.20279 -26.6525 3.307179 12.36468 4.251783 -28.55185 -12.11952 -86.9975 -0.6264883 19.43163 0 0 -12.61571 24.76613 12.58729 -19.87627
-1381.019 79.28757 2874.967 -11.66975 -4.637479 -69.37435 3.73383 -0.1556066 -11.18674 -0 17.19982 -0 -24.27257 16.64368 7.130402 -1.810342 0.744107 -3.543487 -0 20.79311 -0 8.619228 -7.452336 16.14169 0.2817886 -2.516648 3.458255 -0.4610905 17.28645 -5.722593 1.033253 23.52949 3.488272 2.792185 -20.91312 3.820095 -9.1736 -26.38891 11.12926 100.2409 10.18184 -14.25276 -0 0 10.20279 -26.65249 3.307184 12.36467 4.251784 -28.55185 -12.11951 -86.9975 -0.6264842 19.43163 0 0 -12.61573 24.76613 12.58729 -19.87626
-1387.378 79.33711 2877.966 -11.68264 -4.604508 -69.5344 3.733838 -0.1555996 -11.18673 -0 17.19977 -0 -24.27256 16.64365 7.130394 -1.810335 0.7440881 -3.543481 -0 20.79314 -0 8.61922 -7.452328 16.14169 0.2817914 -2.516646 3.458259 -0.461089 17.28645 -5.722594 1.033253 23.52949 3.488271 2.792184 -20.91312 3.820094 -9.173597 -26.38891 11.12926 100.2409 10.18184 -14.25276 -0 0 10.20279 -26.65249 3.30719 12.36467 4.251784 -28.55185 -12.11951 -86.9975 -0.6264777 19.43163 0 0 -12.61573 24.76612 12.58729 -19.87625
-1393.745 79.38665 2880.947 -11.69544 -4.571501 -69.69444 3.733845 -0.1555796 -11.18672 -0 17.19974 -0 -24.27255 16.64363 7.130387 -1.810328 0.7440582 -3.543475 -0 20.79316 -0 8.619212 -7.452319 16.14169 0.2817934 -2.516644 3.458264 -0.4610886 17.28644 -5.722592 1.033253 23.52949 3.488269 2.792183 -20.91312 3.820093 -9.173593 -26.38891 11.12927 100.2409 10.18185 -14.25276 -0 0 10.2028 -26.65248 3.307196 12.36467 4.251784 -28.55185 -12.1195 -86.9975 -0.6264692 19.43164 0 0 -12.61573 24.76611 12.58729 -19.87624
-1400.121 79.43619 2883.909 -11.70814 -4.538459 -69.85446 3.733851 -0.1555486 -11.18671 -0 17.19972 -0 -24.27253 16.6436 7.13038 -1.81032 0.74402 -3.54347 -0 20.79317 -0 8.619205 -7.452309 16.14169 0.2817945 -2.516643 3.45827 -0.4610894 17.28644 -5.722589 1.033253 23.52949 3.488269 2.792182 -20.91312 3.820093 -9.17359 -26.38891 11.12927 100.2409 10.18186 -14.25275 -0 0 10.20282 -26.65248 3.307201 12.36467 4.251783 -28.55184 -12.1195 -86.99751 -0.6264596 19.43165 0 0 -12.61573 24.7661 12.58729 -19.87622
-1406.505 79.48573 2886.854 -11.72076 -4.505383 -70.01447 3.733857 -0.1555093 -11.1867 -0 17.19971 -0 -24.27252 16.64357 7.130374 -1.810312 0.7439762 -3.543467 -0 20.79317 -0 8.619199 -7.452299 16.1417 0.2817947 -2.516641 3.458277 -0.4610911 17.28644 -5.722585 1.033253 23.52949 3.488268 2.792181 -20.91312 3.820093 -9.173587 -26.38892 11.12927 100.2409 10.18187 -14.25273 -0 0 10.20283 -26.65248 3.307205 12.36468 4.251783 -28.55183 -12.11949 -86.99752 -0.6264494 19.43167 0 0 -12.61571 24.76608 12.58729 -19.8762
